# xmcd
# 
# Track frame offsets:
#     150
#     12137
#     34047
#     52245
#     72962
#     87827
#     106085
#     123697
#     132280
#     161057
#     180547
#     205822
#     214642
#     242842
#     254967
#     277660
#     292667
#     308400
#     322640
#     336850
# 
# Disc length: 4736
# 
# Revision: 10
# Processed by: cddbd v1.5.2PL0 Copyright (c) Steve Scherf et al.
# Submitted via: fre:ac v1.0.31
# 
DISCID=17127e14
DTITLE=Various Artist - classical ever! Two -millenium-  ディスク１　トレンディ・サイド
DYEAR=2000
DGENRE=Classical
TTITLE0=VaJ.S.バッハ - 無伴奏チェロ組曲 第1番 ト長調より プレリュード
TTITLE1=坂本龍一 - エナジー・フロー
TTITLE2=Various Artistsビゼー - 歌劇『カルメン』第1幕より「ハバネラ」
TTITLE3=リスト - ラ・カンパネッラ (パガニーニによる大練習曲S.141より)
TTITLE4=J.S.バッハ～グノー編 - アヴェ・マリア
TTITLE5=フォーレ - ビエ・イエス ～レクイエムより
TTITLE6=サティ - ジュ・トゥ・ヴ (あなたが大好き)
TTITLE7=ガーシュウィン - 前奏曲Ⅲ (3つの前奏曲より～ペナフォルテ編)
TTITLE8=バーバー - 管弦のためのアダージョ 作品11a
TTITLE9=Various Artエルガー - ニムロッド (「エニグマ変奏曲」作品36より)
TTITLE10=ベルリーニ - 歌劇『ノルマ』第1幕より「清らかな女神よ」
TTITLE11=フリッツ・クライスラー - 美しきロスマリン
TTITLE12=ショパン - ピアノ協奏曲 第1番 ホ短調 作品11 第1楽章より抜粋
TTITLE13=ヘンデル - 歌劇『セルセ』より「オンブラ・マイ・フ」
TTITLE14=ガーシュウィン - ラブソティ・イン・ブルーより
TTITLE15=レノン＆マッカトニー～武満 徹編 - イエスタデイ
TTITLE16=ブラームス - 弦楽六重奏曲 第1番 作品18 "恋人たち" 第2楽章より
TTITLE17=マーラー - 交響曲 第5番 嬰ハ短調 第4楽章 「アダージェット」より
TTITLE18=プッチーニ - 歌劇『トスカ』 第3幕より 「星は光りぬ」
TTITLE19=クワラントット～サルトーリ - タイム・トゥ・セイ・グッバイ（サラのソロ・ヴァージョン）
EXTD=
EXTT0=
EXTT1=
EXTT2=
EXTT3=
EXTT4=
EXTT5=
EXTT6=
EXTT7=
EXTT8=
EXTT9=
EXTT10=
EXTT11=
EXTT12=
EXTT13=
EXTT14=
EXTT15=
EXTT16=
EXTT17=
EXTT18=
EXTT19=
PLAYORDER=
